<svg xmlns="http://www.w3.org/2000/svg" viewBox="0 0 187.2 187.2"><defs><style>.cls-1{fill:rgba(43, 48, 56, .75);}.cls-2{fill:#fff;}.cls-3{fill:#d69e8b;}</style></defs><title>Asset 1</title><g id="Layer_2" data-name="Layer 2"><g id="Foil"><g id="badge"><circle id="circle" class="cls-1" cx="93.6" cy="93.6" r="93.58"/><g id="matt_amee" data-name="matt amee"><path class="cls-2" d="M15.05,73.7a1.18,1.18,0,0,1,.75-1.43c.57-.16,5.22-.44,8.26,10.29.82,2.86,2.59,11.89,2.59,11.89.93-13.62,3.78-31.18,11.59-33.4,3.76-1.07,5.9,1.12,6.84,4.43s1,12,1,18.35c0,3-.14,3.38,0,5.42C47.43,80.6,50.42,70,55.93,68.41c3.26-.92,5.2.78,6,3.7,1.46,5.17.16,11.48,1.79,17.22.92,3.25,2.56,4.12,2.56,4.12.44.24.67.42.76.76a1.25,1.25,0,0,1-.87,1.4,1.75,1.75,0,0,1-.9-.17c-.35-.14-2.82-1.38-3.94-5.32-1.59-5.61-.43-12.62-1.81-17.51-.48-1.69-1.65-2.39-3.11-2-5.23,1.48-8,14-9.42,27.56-.24,2.13-.2,2.49-1.16,2.76a1.24,1.24,0,0,1-1.51-1,40.09,40.09,0,0,1-.8-8.39c0-13.55.15-21.72-.89-25.37-.68-2.42-2-3.33-3.94-2.77C32.65,65.12,29.66,86,28.8,99.24a87.42,87.42,0,0,0-.08,10.83,1.06,1.06,0,0,1-.85,1.09,1.45,1.45,0,0,1-1.67-.74,2.09,2.09,0,0,1-.07-.71c-.23-2.72-1.36-15.46-4.48-26.47-2.36-8.31-5.15-8.74-5.79-8.86S15.15,74,15.05,73.7Z"/><path class="cls-2" d="M74.8,94.93c-1.91.54-4-.37-4.92-3.46-2.16-7.58,2.75-17.23,8.48-18.86,2.25-.64,3.65.24,4,1.12a1.1,1.1,0,0,1,1.44.81c.3,1.06-.39,4.42.43,7.28.65,2.31,1.66,3.72,3,3.35,2.19-.62,3.45-6.68,3.45-6.68.15-.53.33-.95.73-1.06a.77.77,0,0,1,1,.56,3,3,0,0,1,0,.93S91,86.27,87.39,87.29c-4.22,1.2-5.13-4.37-5.69-4.21S79.24,93.67,74.8,94.93Zm4.7-13.41c.57-2.47.74-5.74,1.58-6.4-.14-.51-1.11-.72-2.13-.43-3.76,1.07-8.33,9.77-6.48,16.29.4,1.4,1.16,2.16,2.28,1.84C76.77,92.25,78.12,87.37,79.5,81.52Z"/><path class="cls-2" d="M107.84,84.7c-3.09.88-6.19-1.27-7.34-5.32a48.06,48.06,0,0,1-1.4-11.56,46.57,46.57,0,0,1-7.5,4.37,69.12,69.12,0,0,0,1.54,6.91c2.44,8.6,5.78,11.6,5.78,11.6a1.61,1.61,0,0,1,.44.72,1.18,1.18,0,0,1-.73,1.48,1.42,1.42,0,0,1-1.3-.3S93.68,90,90.81,79.88A67.31,67.31,0,0,1,89.27,73l-.22.07c-4.1,1.16-5.8.31-6-.36a1,1,0,0,1,.66-1.29c.9-.25,1.33.6,4.75-.37l.45-.13c-.73-4.71-1-9.25-1.27-13.24a1.32,1.32,0,0,1,.91-1.29,1.11,1.11,0,0,1,1.48.92c.2,1.76.3,3.62.48,5.32.2,2.44.41,4.87.77,7.43,3.08-1.35,5.24-3.12,7.75-4.56-.12-2.76-.2-6.26-.57-9.07A1.25,1.25,0,0,1,99.16,55a1.33,1.33,0,0,1,1.61.76,69.42,69.42,0,0,1,.75,8.41,16.84,16.84,0,0,1,2.43-.87c2.64-.75,4.19-.41,4.46.55a1,1,0,0,1-.72,1.3c-1,.27-1.3-.3-3.15.23a16.86,16.86,0,0,0-2.9,1.12.51.51,0,0,0,0,.3,53.94,53.94,0,0,0,1.5,11.71c.79,2.76,2.31,4.69,4.33,4.12,2.7-.77,4.09-7.84,4.34-10.16a1.17,1.17,0,0,1,.73-1.06.87.87,0,0,1,1.12.54,3.85,3.85,0,0,1,0,1C113.44,75.77,112.16,83.48,107.84,84.7Z"/><path class="cls-2" d="M90.73,92.71a1,1,0,0,1,1.26.62,5.31,5.31,0,0,1,.18,1.46,118.16,118.16,0,0,0,3.23,21.67,13.67,13.67,0,0,1,3.43-.12,1,1,0,0,1,.9.83,1.16,1.16,0,0,1-.8,1.45,2.52,2.52,0,0,1-.91,0,8.47,8.47,0,0,0-2,.09l.59,2.08a64,64,0,0,0,4,10.76,1.22,1.22,0,0,1-.9,1.53,1.32,1.32,0,0,1-1.41-.69,66.36,66.36,0,0,1-4.45-11.61l-.46-1.63c-.86.18-1.83.4-3,.73a76.9,76.9,0,0,0-8.3,2.84c-3,11.16-7.83,24.62-14.63,26.55-2.52.72-4.91-.18-5.26-1.42a1.45,1.45,0,0,1,1-1.67,1.9,1.9,0,0,1,1.54.29,3.62,3.62,0,0,0,2.87.28c5-1.42,8.91-12.67,11.69-22.75-7.91,3.77-10.66,7.58-11.62,8.88a1.84,1.84,0,0,1-1.12,1,1.15,1.15,0,0,1-1.5-.79,1.46,1.46,0,0,1,.15-1.19c.86-1.46,4.83-6.29,14.87-10.72l.89-3.47c2.6-10.33,5.47-21.16,8.8-24.41A2.38,2.38,0,0,1,90.73,92.71ZM92.81,117a114.53,114.53,0,0,1-3-19.1c-1.75,3.47-4.55,12.21-6.57,20.5l-.41,1.75a70.21,70.21,0,0,1,7-2.34C90.94,117.42,92,117.13,92.81,117Z"/><path class="cls-2" d="M137.11,117.55a10,10,0,0,1-4.71,3.71,4.47,4.47,0,0,1-5.69-3.36,18.54,18.54,0,0,1-.35-5.31,17.13,17.13,0,0,0-.25-4.3c-.27-1-.76-1.18-1.38-1-2.81.79-4.46,11-4.74,16.88-.06,1.72-1.81,2-2.29.29-1.91-6.74-2.26-10.53-3.85-16.15-.24-.84-.78-1.24-1.45-1-2.25.64-2.91,5.38-3.17,13.23-.13,4.47,0,8.44-.09,8.89a1.2,1.2,0,0,1-.81,1.2,1.18,1.18,0,0,1-1.52-.66c-.21-.73-.83-5.72-1.7-8.75a45.78,45.78,0,0,0-3.61-9.3,1.31,1.31,0,0,1,.87-1.45,1,1,0,0,1,1.19.57,28.81,28.81,0,0,1,3.53,7.31c.38-6.17,1.07-12.08,4.89-13.16,2-.58,3.66.29,4.3,2.54.86,3,1.48,6.93,2.25,9.86.82-5.27,2.35-11.41,6-12.44a3.09,3.09,0,0,1,4,2.38,16.43,16.43,0,0,1,.32,4.34,20.63,20.63,0,0,0,.45,5.64c.43,1.52,1.34,2.17,2.74,1.77a7.65,7.65,0,0,0,3.62-3.09,10.67,10.67,0,0,1-1.53-3.27c-2-7,1.47-13.41,4.67-14.32a3.1,3.1,0,0,1,4,2.25c.83,2.93-1.26,9.89-4.48,15a5.27,5.27,0,0,0,5.47,1.11,13.05,13.05,0,0,0,6.65-5,11.77,11.77,0,0,1-1.65-3.66c-2-7,1-12.78,3.74-13.57A3,3,0,0,1,156.4,97c1,3.6-.32,9.56-3.34,14.55a5.29,5.29,0,0,0,5.57,1.21c5.73-1.62,7.25-10.37,7.56-12.28.15-.77.42-1.09.87-1.22a1,1,0,0,1,1.19.57,3.75,3.75,0,0,1,0,1.2c-.14,1.87-2.27,11.88-9.3,13.87a7.91,7.91,0,0,1-7.17-1.54,14.92,14.92,0,0,1-7.55,5.72A7.87,7.87,0,0,1,137.11,117.55Zm-.05-3.62c2.45-4.4,4.08-10.21,3.44-12.46-.19-.67-.6-1-1.1-.9-2.08.59-4.55,6-3,11.65A16,16,0,0,0,137.06,113.93Zm14.81-4.27c2.3-4.11,3.22-9,2.44-11.74-.31-1.07-.7-1.38-1.15-1.25-1.85.52-3.47,5.72-1.88,11.34A16.32,16.32,0,0,0,151.87,109.66Z"/></g><g id="and"><path class="cls-3" d="M123.45,89.07c-.92.27-2-.17-2.37-1.66-1-3.66,1.33-8.31,4.09-9.09,1.08-.31,1.76.12,1.91.54a.52.52,0,0,1,.69.39c.15.51-.18,2.13.21,3.51.31,1.11.8,1.79,1.42,1.61,1.06-.3,1.66-3.22,1.66-3.22.08-.25.17-.45.36-.51a.37.37,0,0,1,.48.27,1.4,1.4,0,0,1,0,.45s-.63,3.54-2.36,4c-2,.58-2.47-2.1-2.74-2S125.59,88.47,123.45,89.07Zm2.26-6.46c.28-1.19.36-2.76.77-3.08-.07-.24-.54-.35-1-.21-1.81.52-4,4.71-3.12,7.85.19.68.56,1,1.1.89C124.4,87.78,125.05,85.43,125.71,82.61Z"/><path class="cls-3" d="M132.3,82.7c.5-2.77,1.32-5.84,2.94-6.3,1.14-.33,1.82.42,2.36,1.79,1.47,3.76,2,4.76,3.13,4.43,1.35-.38,1.48-3.52,1.56-4.48,0-.51.18-.72.42-.79a.45.45,0,0,1,.59.33,3.11,3.11,0,0,1,0,.64c0,.57-.31,4.8-2.72,5.48-1.76.5-2.61-1.16-4.07-5-.35-.9-.7-1.65-1.16-1.52-1.14.32-1.94,3.91-2.34,6.43a10.93,10.93,0,0,0-.2,2.57.61.61,0,0,1-.5.73.56.56,0,0,1-.74-.47,7.23,7.23,0,0,1-.06-1.35,20.58,20.58,0,0,0-.94-5.56A4.21,4.21,0,0,0,130,78.3a1.09,1.09,0,0,1-.18-.3.58.58,0,0,1,.45-.68.68.68,0,0,1,.7.3,5.94,5.94,0,0,1,.77,1.77,23,23,0,0,1,.44,2.27C132.21,82,132.23,82.37,132.3,82.7Z"/><path class="cls-3" d="M146.86,72.78a20.34,20.34,0,0,1-.81-2.34c-1.74-6.12-.61-8,.74-8.41,1-.27,1.73.3,2.13,1.71,1,3.36-.17,10.55.12,11.55.59,2.11,2.26,4.48,3.1,4.24,1.3-.37,1.82-3.88,1.94-4.91a.43.43,0,0,1,.3-.41.42.42,0,0,1,.54.29,1.39,1.39,0,0,1,0,.61c-.12,1-.6,4.8-2.68,5.39-1.92.54-3.39-2.76-3.58-2.7s-.85,4.39-3.35,5.1a2.32,2.32,0,0,1-2.86-1.85c-1.11-3.9,1.35-7.7,3.36-8.27A1.53,1.53,0,0,1,146.86,72.78ZM147.6,75a5.74,5.74,0,0,0-.34-.87c-.65.18-.75-.37-1.4-.19-1.38.39-3.06,3.42-2.07,6.91.24.86.78,1.33,1.43,1.14,1.25-.35,2.16-2.72,2.55-5.67A4,4,0,0,0,147.6,75Zm.5-2a37.24,37.24,0,0,0-.3-9.19c-.19-.65-.38-1-.76-.92-.79.22-1.13,2.4,1.05,10.09Z"/></g></g></g></g></svg>