<svg xmlns="http://www.w3.org/2000/svg" xmlns:xlink="http://www.w3.org/1999/xlink" viewBox="0 0 288 244.93"><defs><style>.cls-1{fill:#fff;}.cls-2{fill:url(#New_Gradient_Swatch_3);}.cls-3{fill:url(#New_Gradient_Swatch_3-2);}</style><linearGradient id="New_Gradient_Swatch_3" x1="40.73" y1="128.92" x2="247.93" y2="128.92" gradientUnits="userSpaceOnUse"><stop offset="0" stop-color="#ecc9a4"/><stop offset="1" stop-color="#ca947e"/></linearGradient><linearGradient id="New_Gradient_Swatch_3-2" x1="186.67" y1="107.54" x2="211.62" y2="107.54" xlink:href="#New_Gradient_Swatch_3"/></defs><title>Asset 3</title><g id="Layer_2" data-name="Layer 2"><g id="Layer_1-2" data-name="Layer 1"><path class="cls-1" d="M107.64,1.28,286.36,112.67l-141,130.9-144-131.1L107.64,1.28M107.48,0,0,112.52,145.42,244.93,288,112.52,107.48,0Z"/><path class="cls-2" d="M244.38,27.09l-.89,0,.06,1.33h-.64l0,.89,1.5,0v-.18h0c0-.17,0-.4,0-.56h0l0-1.5Zm-3.55.17-.59,0h-.3l.07,1.5.89,0-.07-1.5Zm-3.55.17-.72,0h-.17l.07,1.5.89,0-.07-1.49Zm-3.55.16h-.25l-.64,0,.07,1.5.89,0-.07-1.5Zm-3.56.17H230l-.67,0,.07,1.5.88,0-.07-1.5Zm-3.55.16-.79,0h-.1l.07,1.49.89,0-.07-1.5Zm-3.55.17-.48,0-.41,0,.07,1.5.89,0-.07-1.5Zm-3.55.17-.89,0,.07,1.5.89,0-.07-1.5Zm-3.55.16-.5,0h0l-.38,0,.07,1.49.89,0-.07-1.5Zm-3.55.17-.8,0h-.09l.07,1.5.89,0-.07-1.5Zm-3.56.17h-.33l-.55,0,.07,1.5.88-.05-.07-1.49Zm-3.55.16h-.12l-.77,0,.07,1.5.89,0-.07-1.5Zm-3.55.17-.7,0h-.19l.07,1.5.89,0-.07-1.5Zm-3.55.16-.56,0h0l-.33,0,.07,1.49.89,0-.07-1.5Zm-3.55.17h-.16l-.73,0,.07,1.5.89,0-.07-1.5Zm-3.55.17-.4,0h0l-.48,0,.07,1.5.89,0-.07-1.5Zm-3.56.16-.88.05.07,1.49.88,0-.07-1.5Zm-3.55.17-.39,0h0l-.5,0,.07,1.5.89,0-.07-1.5Zm-3.55.17h-.11l-.78,0,.07,1.5.89-.05-.07-1.49Zm-3.55.16-.61,0H176l.07,1.5.89,0-.07-1.5Zm-3.55.17-.63,0h-.26l.07,1.5.89,0-.07-1.5Zm-3.55.17h-.22l-.67,0,.07,1.5.89-.05-.07-1.49Zm-3.56.16-.31,0h0l-.57,0,.07,1.5.88,0-.07-1.5Zm-3.55.17-.89,0,.07,1.5.89,0-.07-1.5Zm-3.55.16-.45,0-.44,0,.07,1.49.89,0-.07-1.5Zm-3.55.17h0l-.88,0,.07,1.5.89,0-.07-1.5Zm-3.55.17-.53,0-.36,0,.07,1.5.89,0-.07-1.5Zm-3.55.16-.7,0h-.19l.07,1.5.89,0-.07-1.5Zm-3.56.17h-.23l-.65,0,.07,1.5.88,0-.07-1.5Zm-3.55.17h-.21l-.68,0,.07,1.5.89-.05-.07-1.49Zm-3.55.16-.82,0h-.07l.07,1.5.89,0-.07-1.5Zm-3.55.17-.54,0-.35,0,.07,1.5.89,0-.07-1.5Zm-3.55.16-.89.05.07,1.49.89,0-.07-1.5Zm-3.55.17-.49,0-.4,0,.07,1.5.89,0-.07-1.5Zm-3.56.17-.77,0h-.11l.07,1.5.88,0-.07-1.5Zm-3.55.16-.3,0h0l-.58,0,.07,1.49.89,0-.07-1.5Zm-3.55.17h-.14l-.75,0,.07,1.5.89,0-.07-1.5Zm-3.55.17-.73,0h-.16l.07,1.5.89,0L113,33.25Zm-3.55.16-.57,0h-.32l.07,1.5.89,0-.07-1.5Zm-3.55.17h-.14l-.75,0,.07,1.5.89,0-.07-1.5Zm-3.56.17-.43,0h0l-.44,0,.07,1.5.88,0-.07-1.49Zm-3.55.16-.89,0,.07,1.5.89,0-.07-1.5Zm-3.55.17h-.37l-.52,0,.07,1.5.89,0-.07-1.5Zm-3.55.16h0l-.85,0,.07,1.49.89,0-.07-1.5Zm-3.55.17-.64,0h-.25l.07,1.5.89,0-.07-1.5Zm-3.55.17-.61,0-.28,0,.07,1.5.89,0-.07-1.5ZM81,34.74h-.21l-.67,0,.07,1.5.88,0L81,34.74Zm-3.55.17h-.34l-.55,0,.07,1.5.89,0-.07-1.5Zm-3.55.17-.83,0H73l.07,1.5.89,0-.07-1.49Zm-3.55.16-.44,0-.45,0,.07,1.5.89,0-.07-1.5Zm-3.55.17-.89,0L66,37l.89,0-.07-1.5Zm-3.55.16-.55,0h0l-.33,0,.07,1.49.89,0-.07-1.5Zm-3.56.17-.67,0h-.21l.07,1.5.88,0-.07-1.5Zm-3.55.17h-.28l-.61,0,.07,1.5.89,0-.07-1.5Zm-3.55.16h-.24l-.65,0,.07,1.5.89,0-.07-1.5ZM49,36.24l-.83,0h-.06l.07,1.5.89,0L49,36.24Zm-1.21,2.49v.13h0l0,.75,1.5.05,0-.89-1.5-.05Zm-.13,3.55v.42l0,.47,1.5,0,0-.88-1.5-.06Zm-.13,3.55s0,.39,0,.65h0v.23l1.5.06,0-.89-1.5-.06Zm-.13,3.56,0,.89,1.49,0,0-.89-1.5,0Zm-.13,3.55,0,.62h0v.26l1.5.05,0-.88-1.5-.06Zm-.13,3.55,0,.38h0l0,.5,1.5.06,0-.89-1.49-.06ZM47,60.05v.17h0l0,.7,1.5.05,0-.89L47,60.05Zm-.13,3.55v.08h0l0,.8,1.5.05,0-.88-1.5-.06Zm-.13,3.55v.34l0,.55,1.5.06,0-.89-1.5-.06Zm-.13,3.56,0,.58v.3l1.5.06,0-.89-1.5-.05Zm-.13,3.55,0,.82h0v.05l1.5,0,0-.89-1.5,0Zm-.13,3.55,0,.69v.2l1.5.06,0-.89-1.5-.06Zm-.13,3.56,0,.45,0,.43,1.5.06,0-.89-1.5,0Zm-.13,3.55v.22h0c0,.27,0,.67,0,.67l1.5,0,0-.89-1.49,0ZM46,88.47l0,.89,1.5.06,0-.89L46,88.47ZM45.86,92v.27l0,.62,1.5.06,0-.89L45.86,92Zm-.13,3.56,0,.52h0v.35l1.5,0,0-.89-1.5,0Zm-.13,3.55s0,.54,0,.78h0v.1l1.5,0,0-.88-1.5-.06Zm-.13,3.55,0,.77v.12l1.49.06,0-.89-1.5-.06Zm-.13,3.56,0,.52h0l0,.36,1.5.05,0-.89-1.5-.05Zm-.13,3.55,0,.32,0,.57,1.5,0,0-.88-1.49-.06Zm-.14,3.55v.07h0c0,.21,0,.82,0,.82l1.5.06,0-.89-1.5-.06Zm-.13,3.56v.17h0l0,.71,1.5,0,0-.89-1.5,0Zm-.13,3.55s0,.22,0,.44l0,.45,1.5,0,0-.88-1.5-.06ZM44.68,124l0,.73h0v.15l1.5.06,0-.89-1.5-.06Zm-.13,3.56,0,.88,1.49.06,0-.89-1.5,0Zm-.13,3.55,0,.6h0V132l1.5.05,0-.89-1.5,0Zm-.13,3.55,0,.37c0,.24,0,.52,0,.52l1.5.06,0-.89-1.5-.06Zm-.14,3.56v.15c0,.26,0,.73,0,.73l1.5.06,0-.89-1.5-.05ZM44,141.77v.11h0l0,.77,1.5.05,0-.89-1.5,0Zm-.13,3.55v.36h0l0,.52,1.5.06,0-.89-1.5-.06Zm-.13,3.56s0,.37,0,.63h0v.25l1.5.06,0-.89-1.5-.05Zm-.13,3.55,0,.89,1.5.05,0-.89-1.5,0ZM43.5,156l0,.66h0v.22l1.49,0,0-.88L43.5,156Zm-.13,3.55,0,.44,0,.45,1.5.06,0-.89-1.5-.06Zm-.13,3.56v.2h0c0,.27,0,.69,0,.69l1.5.05,0-.89-1.49,0Zm-.14,3.55h0l0,.87,1.5.05,0-.88-1.5-.06ZM43,170.19s0,.13,0,.28h0l0,.59,1.5.06,0-.89-1.5-.06Zm-.13,3.56s0,.31,0,.56v.33l1.5.05,0-.89-1.5-.05Zm-.13,3.55s0,.58,0,.8h0v.08l1.5.05,0-.88-1.5-.06Zm-.13,3.55,0,.76v.13l1.49.06,0-.89-1.5-.06Zm-.13,3.56,0,.49h0l0,.39,1.5.06,0-.89-1.5-.05ZM42.32,188v.25c0,.27,0,.64,0,.64l1.5.05,0-.89-1.49,0Zm-.14,3.55,0,.89,1.5.06,0-.89-1.5-.06Zm-.13,3.56v.2l0,.68,1.5.06,0-.89-1.5-.05Zm-.13,3.55,0,.47h0v.41l1.5.05,0-.89-1.5,0Zm-.13,3.55,0,.75h0v.13l1.5.06,0-.89-1.5-.06Zm-.13,3.56,0,.78h0v.08l1.5.06,0-.89-1.5-.05Zm-.13,3.55,0,.57h0c0,.17,0,.31,0,.31l1.5.05,0-.89-1.5-.05Zm-.13,3.55,0,.33c0,.26,0,.56,0,.56l1.5.06,0-.89-1.5-.06Zm-.14,3.55v.09l0,.8,1.5.06,0-.89-1.5-.06Zm-.13,3.56v.13l0,.76,1.5,0,0-.89-1.5-.05ZM41,223.49v.4l0,.49,1.5.05,0-.88-1.5-.06ZM40.87,227s0,.4,0,.66h0v.23l1.5.06,0-.89-1.5-.06Zm.25,2.07-.33.08-.06,1.55h0l.54-.12h0l.19-.05-.34-1.46Zm3.47-.8-.87.2.34,1.46.86-.2-.33-1.46Zm3.46-.81-.87.2.34,1.46.87-.2-.34-1.46Zm3.46-.8-.86.2.34,1.46.46-.11.4-.09-.34-1.46Zm3.47-.81-.87.21.34,1.46.86-.2L55,225.89Zm3.46-.8-.87.2.34,1.46.87-.2-.34-1.46Zm3.46-.8-.86.2.34,1.46.86-.2-.34-1.46Zm3.47-.81-.87.2.34,1.47.87-.21-.34-1.46Zm3.46-.8-.87.2.34,1.46.08,0h.05l.74-.17-.34-1.46Zm3.46-.8-.86.2.34,1.46.86-.2-.34-1.46Zm3.47-.81-.87.2.34,1.46.87-.2-.34-1.46Zm3.46-.8-.87.2.34,1.46.87-.2-.34-1.46Zm3.46-.81-.86.21.34,1.46.86-.2-.34-1.47Zm3.47-.8-.87.2.34,1.46.87-.2-.34-1.46Zm3.46-.8-.86.2.33,1.46.46-.11h0l.38-.09-.34-1.46Zm3.46-.81-.86.2.34,1.47.86-.21-.34-1.46Zm3.47-.8-.87.2.34,1.46.87-.2-.34-1.46Zm3.46-.8-.86.2.33,1.46.87-.2-.34-1.46Zm3.47-.81-.87.2.34,1.46.86-.2-.33-1.46Zm3.46-.8-.87.2.34,1.46.44-.1.43-.1-.34-1.46Zm3.46-.81-.86.21.34,1.46.86-.2-.34-1.47Zm3.47-.8-.87.2.34,1.46.86-.2-.33-1.46Zm3.46-.8-.87.2.34,1.46.87-.2-.34-1.46Zm3.46-.81-.86.2.34,1.47.86-.21-.34-1.46Zm3.47-.8-.87.2.34,1.46.27-.06H124l.55-.13-.34-1.46Zm3.46-.8-.87.2.34,1.46.87-.2-.34-1.46Zm3.46-.81-.86.2.34,1.46.86-.2-.34-1.46Zm3.47-.8-.87.2.34,1.46.38-.09h.06l.43-.1-.34-1.46Zm3.46-.81-.87.21.34,1.46.87-.2-.34-1.47Zm3.46-.8-.86.2.34,1.46.86-.2-.34-1.46ZM145,205l-.87.2.34,1.46.66-.15h0l.17,0L145,205Zm3.46-.81-.87.2.34,1.47.87-.21-.34-1.46Zm3.46-.8-.86.2.34,1.46.86-.2-.34-1.46Zm3.47-.8-.87.2.34,1.46.87-.2-.34-1.46Zm3.46-.81-.86.2.33,1.46.87-.2-.34-1.46Zm3.46-.8-.86.2.34,1.46.41-.1.45-.1-.34-1.46Zm3.47-.81-.87.21.34,1.46.87-.2-.34-1.47Zm3.46-.8-.86.2.33,1.46.87-.2-.34-1.46Zm3.47-.8-.87.2.34,1.46.4-.09.46-.11-.33-1.46Zm3.46-.81-.87.2.34,1.46.87-.2-.34-1.46Zm3.46-.8-.86.2.34,1.46.43-.1h.09l.34-.08-.34-1.46Zm3.47-.8-.87.2.34,1.46.86-.2-.33-1.46Zm3.46-.81-.87.2.34,1.46.87-.2-.34-1.46Zm3.46-.8-.86.2.34,1.46.86-.2-.34-1.46Zm3.47-.81-.87.2.34,1.47.87-.2-.34-1.47Zm3.46-.8-.87.2.34,1.46.87-.2-.34-1.46Zm3.46-.8-.86.2.34,1.46.81-.19h.05l-.34-1.46Zm3.47-.81-.87.2.34,1.46.87-.2-.34-1.46Zm3.46-.8-.87.2.34,1.46.87-.2-.34-1.46Zm3.46-.8-.86.2.34,1.46.86-.2-.34-1.46Zm3.47-.81-.87.2.34,1.46.87-.2-.34-1.46Zm3.46-.8-.86.2.33,1.46.87-.2-.34-1.46Zm3.46-.81-.86.2.34,1.47.86-.21-.34-1.46Zm3.47-.8-.87.2.34,1.46.87-.2-.34-1.46Zm3.46-.8-.86.2.33,1.46.48-.11h0l.38-.09-.34-1.46Zm3.46-.81-.86.2.34,1.46.86-.2-.34-1.46Zm3.47-.8-.87.2.34,1.46.87-.2-.34-1.46Zm3.46-.81-.86.21L238,185l.86-.2-.34-1.47Zm3.47-.8-.87.2.34,1.46.86-.2-.33-1.46Zm3.46-.8-.87.2.34,1.46.87-.2-.34-1.46Zm2.44-.4-1.5,0,0,.89,1.5,0v-.12h0c0-.24,0-.76,0-.76Zm-.08-3.56-1.5,0,0,.89,1.5,0v0h0l0-.85Zm-.08-3.55-1.5,0,0,.89,1.5,0v0h0l0-.86Zm-.08-3.56-1.5,0,0,.89,1.5,0v-.89Zm-.09-3.55-1.5,0,0,.89,1.49,0v-.21h0l0-.68Zm-.08-3.56-1.5,0,0,.89,1.5,0v-.28h0l0-.58Zm-.08-3.55-1.5,0,0,.89,1.5,0v-.36h0V160Zm-.08-3.55-1.5,0,0,.89,1.5,0s0-.22,0-.44h0v-.43Zm-.08-3.56-1.5,0,0,.88,1.5,0v-.56h0v-.33Zm-.08-3.55-1.5,0,0,.89,1.5,0,0-.61h0v-.26Zm-.08-3.56-1.5,0,0,.88,1.5,0,0-.7h0v-.18Zm-.09-3.55-1.49,0,0,.89,1.5,0s0-.58,0-.8v-.09Zm-.08-3.56-1.5,0,0,.89,1.5,0s0-.83,0-.88Zm-.08-3.55-1.5,0,0,.89,1.5,0,0-.83h0v0Zm-.08-3.56-1.5,0,0,.89,1.5,0,0-.75v-.14Zm-.08-3.55-1.5,0,0,.89,1.5,0,0-.66V128Zm-.08-3.56-1.5,0,0,.89,1.5,0v-.57h0v-.31Zm-.08-3.55-1.5,0,0,.89,1.5,0v-.51h0c0-.2,0-.38,0-.38Zm-.08-3.56-1.5,0,0,.89,1.5,0v-.89Zm-.09-3.55-1.5,0,0,.89,1.5,0v-.35c0-.25,0-.54,0-.54Zm-.08-3.55-1.5,0,0,.89,1.5,0v-.25h0c0-.26,0-.62,0-.62Zm-.08-3.56-1.5,0,0,.88,1.5,0v-.18h0l0-.7Zm-.08-3.55-1.5,0,0,.89,1.5,0v-.11h0c0-.24,0-.75,0-.75ZM246,99.53l-1.5,0,0,.88,1.5,0v0h0c0-.18,0-.85,0-.85ZM246,96l-1.5,0,0,.89,1.5,0v-.06h0l0-.81Zm-.08-3.56-1.5,0,0,.89,1.5,0v-.14h0v-.74Zm-.09-3.55-1.49,0,0,.89,1.5,0v-.21l0-.68Zm-.08-3.56-1.5,0,0,.89,1.5,0v-.31l0-.58Zm-.08-3.55-1.5,0,0,.89,1.5,0v-.89Zm-.08-3.56-1.5,0,0,.89,1.5,0v-.46h0V78.2Zm-.08-3.55-1.5,0,0,.89,1.5,0V75h0v-.34Zm-.08-3.56-1.5,0,0,.89,1.5,0s0-.38,0-.64v-.25Zm-.08-3.55-1.5,0,0,.89,1.5,0,0-.73v-.16ZM245.23,64l-1.5,0,0,.89,1.5,0s0-.56,0-.79h0V64Zm-.09-3.56-1.5,0,0,.88,1.5,0s0-.78,0-.88h0Zm-.08-3.55-1.5,0,0,.89,1.5,0,0-.79h0v-.08ZM245,53.32l-1.5,0,0,.88,1.5,0v-.89Zm-.08-3.55-1.5,0,0,.89,1.5,0v-.89Zm-.08-3.56-1.5,0,0,.89,1.5,0v-.56h0c0-.17,0-.32,0-.32Zm-.08-3.55-1.5,0,0,.89,1.5,0v-.89Zm-.08-3.56-1.5,0,0,.89,1.5,0v-.4c0-.24,0-.49,0-.49Zm-.09-3.55-1.5,0,0,.89,1.49,0v-.33l0-.56ZM244.49,32,243,32l0,.89,1.5,0v-.23c0-.26,0-.66,0-.66Z"/><path class="cls-1" d="M66.77,68A1.32,1.32,0,0,1,68,66.68c.67,0,5.86,1.13,5.86,13.84,0,3.4-.87,13.84-.87,13.84,5.26-14.63,13.84-33,23.09-33,4.46,0,6.12,3.06,6.12,7s-2.66,13.44-4.59,20.42c-.93,3.27-1.2,3.66-1.73,5.93,4.19-9,10.78-19.77,17.3-19.77,3.86,0,5.46,2.47,5.46,5.93,0,6.12-3.4,12.64-3.4,19.43,0,3.86,1.54,5.32,1.54,5.32.39.4.59.66.59,1.06a1.43,1.43,0,0,1-1.39,1.27,2,2,0,0,1-.94-.47c-.33-.26-2.66-2.39-2.66-7,0-6.65,3.46-14,3.46-19.76,0-2-1.06-3.13-2.79-3.13-6.19,0-13.11,12.91-18.9,27.28-.93,2.26-1,2.66-2.13,2.66-.93,0-1.33-.8-1.33-1.59a44.81,44.81,0,0,1,1.73-9.45c4.26-14.84,6.92-23.76,6.92-28.08,0-2.86-1.13-4.26-3.46-4.26-7.18,0-17,22-22,36.2a98.52,98.52,0,0,0-3.46,11.84,1.21,1.21,0,0,1-1.27.93,1.63,1.63,0,0,1-1.59-1.33,2.42,2.42,0,0,1,.13-.8C68.3,107.87,71,93.57,71,80.52c0-9.84-2.93-11.17-3.6-11.51S66.77,68.41,66.77,68Z"/><path class="cls-1" d="M125.65,109.87c-2.26,0-4.32-1.67-4.32-5.33,0-9,8.38-18,15.17-18,2.66,0,3.92,1.4,4,2.46a1.25,1.25,0,0,1,1.33,1.33c0,1.27-1.8,4.73-1.8,8.12,0,2.73.67,4.59,2.2,4.59,2.59,0,5.85-6.25,5.85-6.25.34-.53.67-.93,1.14-.93a.87.87,0,0,1,.93.93,3.35,3.35,0,0,1-.34,1s-3.72,7.65-8,7.65c-5,0-4.26-6.39-4.92-6.39S130.91,109.87,125.65,109.87ZM135,96.63c1.39-2.53,2.59-6.06,3.72-6.52,0-.6-1-1.14-2.19-1.14-4.46,0-12.18,8.12-12.18,15.84,0,1.66.6,2.73,1.93,2.73C128.65,107.54,131.64,102.62,135,96.63Z"/><path class="cls-1" d="M165,108.94c-3.66,0-6.39-3.33-6.39-8.12a54.17,54.17,0,0,1,2.07-13.11c-3,.86-5.73,2-9.59,2.46a80.17,80.17,0,0,0-.46,8c0,10.18,2.73,14.51,2.73,14.51a1.78,1.78,0,0,1,.26.93,1.34,1.34,0,0,1-1.26,1.4,1.62,1.62,0,0,1-1.33-.73s-3.2-4-3.2-16a79.63,79.63,0,0,1,.47-8.06h-.27c-4.85,0-6.45-1.46-6.45-2.26a1.1,1.1,0,0,1,1.13-1.2c1.06,0,1.26,1.07,5.32,1.07h.53c.67-5.39,1.8-10.45,2.73-14.91a1.51,1.51,0,0,1,1.4-1.13,1.26,1.26,0,0,1,1.33,1.47c-.33,2-.8,4.06-1.13,6-.53,2.72-1.06,5.45-1.46,8.38,3.79-.53,6.72-1.8,9.91-2.6.73-3.06,1.73-6.92,2.2-10.11.06-.6.53-1.33,1.19-1.33A1.52,1.52,0,0,1,166.3,75a78.93,78.93,0,0,1-1.79,9.45,20.65,20.65,0,0,1,2.93-.2c3.12,0,4.72.86,4.72,2a1.19,1.19,0,0,1-1.2,1.19c-1.13,0-1.33-.73-3.52-.73a19.17,19.17,0,0,0-3.53.33c-.07.07-.07.27-.07.34-1.13,5-2,9.18-2,13.31,0,3.26,1.06,5.85,3.46,5.85,3.19,0,6.92-7.32,7.92-9.78a1.3,1.3,0,0,1,1.13-.93,1,1,0,0,1,1.06.93,4.55,4.55,0,0,1-.27,1.13C174,100.89,170.16,108.94,165,108.94Z"/><path class="cls-3" d="M199.11,95.06a1.19,1.19,0,0,1,1.33,1.2v10h9.91a1.18,1.18,0,0,1,1.27,1.33,1.19,1.19,0,0,1-1.2,1.33h-10v9.72a1.25,1.25,0,0,1-1.33,1.4,1.3,1.3,0,0,1-1.33-1.47V108.9h-9.72a1.24,1.24,0,0,1-1.39-1.33,1.29,1.29,0,0,1,1.46-1.33h9.65V96.33A1.18,1.18,0,0,1,199.11,95.06Z"/><path class="cls-1" d="M142.35,117.44a1.12,1.12,0,0,1,1.2,1.06,6.86,6.86,0,0,1-.26,1.67,134.39,134.39,0,0,0-3.2,24.75,15.89,15.89,0,0,1,3.79.93,1.17,1.17,0,0,1,.74,1.2,1.33,1.33,0,0,1-1.33,1.33,2.62,2.62,0,0,1-1-.27,9.29,9.29,0,0,0-2.26-.53V150a72,72,0,0,0,1.06,13,1.39,1.39,0,0,1-1.46,1.4c-1.07,0-1.33-1.2-1.33-1.2a75.91,75.91,0,0,1-1.27-14.1v-1.93c-1-.07-2.13-.14-3.53-.14a85.11,85.11,0,0,0-10,.54C116.8,159,107.29,172.2,99.24,172.2c-3,0-5.33-1.73-5.33-3.19a1.66,1.66,0,0,1,1.6-1.53,2.23,2.23,0,0,1,1.6.79,4.08,4.08,0,0,0,3.06,1.2c5.92,0,13.7-11.11,19.89-21.29-9.84,1.66-14,5-15.5,6.12A2.08,2.08,0,0,1,103,155a1.31,1.31,0,0,1-1.4-1.33,1.66,1.66,0,0,1,.53-1.26c1.4-1.33,7.26-5.39,19.63-7.12l2.07-3.53c6-10.51,12.57-21.49,17.23-24A2.67,2.67,0,0,1,142.35,117.44Zm-5.25,27.21a130.73,130.73,0,0,1,2.59-21.89c-3,3.26-8.78,12-13.57,20.43l-1,1.79a82.37,82.37,0,0,1,8.38-.39C134.9,144.59,136.1,144.59,137.1,144.65Z"/><path class="cls-1" d="M185.47,159.09c-2.2,1.6-4.39,2.6-6.32,2.6a5.11,5.11,0,0,1-5.19-5.46,21.43,21.43,0,0,1,1.26-5.92,19.29,19.29,0,0,0,1.07-4.79c0-1.13-.47-1.53-1.2-1.53-3.33,0-8.32,10.71-10.45,17-.6,1.86-2.59,1.6-2.59-.4,0-8,.8-12.24.8-18.89,0-1-.47-1.6-1.27-1.6-2.66,0-4.86,5-7.58,13.51-1.54,4.85-2.67,9.24-2.87,9.71a1.36,1.36,0,0,1-1.26,1.06,1.33,1.33,0,0,1-1.46-1.19c0-.87.86-6.52.86-10.12,0-8.18-1.06-10.11-1.06-11.31a1.5,1.5,0,0,1,1.39-1.33,1.17,1.17,0,0,1,1.13,1,32.56,32.56,0,0,1,1.6,9.11c2.33-6.65,4.93-12.9,9.45-12.9,2.4,0,3.93,1.46,3.93,4.12,0,3.59-.54,8.05-.6,11.51,2.53-5.52,6.12-11.78,10.44-11.78a3.52,3.52,0,0,1,3.66,3.86,18.56,18.56,0,0,1-1,4.86,23.65,23.65,0,0,0-1.27,6.32c0,1.8.8,2.8,2.46,2.8,1.47,0,3.13-.87,4.93-2.26a12.36,12.36,0,0,1-.67-4.06c0-8.25,5.79-14.24,9.58-14.24a3.52,3.52,0,0,1,3.73,3.72c0,3.46-4.46,10.45-9.58,15,1.06,1.93,3.06,2.93,5.65,2.93A14.93,14.93,0,0,0,201.9,157a13.68,13.68,0,0,1-.66-4.53c0-8.25,5.06-13.7,8.32-13.7,2.06,0,3.46,1.39,3.46,3.72,0,4.26-3.33,10.38-8.19,14.91,1.07,2.06,3.13,3.06,5.72,3.06,6.79,0,11.18-9.12,12.11-11.11.4-.8.8-1.07,1.34-1.07a1.1,1.1,0,0,1,1.13,1,4.31,4.31,0,0,1-.34,1.33c-.73,2-6.18,12.31-14.5,12.31A9.07,9.07,0,0,1,202.9,159c-3.06,2.32-6.52,3.92-10.05,3.92A9,9,0,0,1,185.47,159.09Zm1.06-4c4.06-4.06,7.66-9.91,7.66-12.58,0-.79-.34-1.33-.94-1.33-2.46,0-6.85,5.19-6.85,11.85C186.4,153.77,186.47,154.5,186.53,155.1ZM204.1,155c3.79-3.79,6.32-8.85,6.32-12.11,0-1.26-.33-1.73-.86-1.73-2.2,0-5.59,5.19-5.59,11.85A16.9,16.9,0,0,0,204.1,155Z"/></g></g></svg>