<svg xmlns="http://www.w3.org/2000/svg" xmlns:xlink="http://www.w3.org/1999/xlink" viewBox="0 0 295.25 295.25"><defs><style>.cls-1{fill:#333a44;}.cls-2{fill:#fff;}.cls-3{fill:url(#linear-gradient);}.cls-4{fill:url(#linear-gradient-2);}.cls-5{fill:url(#linear-gradient-3);}.cls-6{fill:none;stroke:#fff;stroke-miterlimit:10;stroke-width:3px;}</style><linearGradient id="linear-gradient" x1="133.25" y1="148.39" x2="143.1" y2="148.39" gradientUnits="userSpaceOnUse"><stop offset="0" stop-color="#ecc9a4"/><stop offset="1" stop-color="#ca945b"/></linearGradient><linearGradient id="linear-gradient-2" x1="141.6" y1="148.75" x2="152.67" y2="148.75" xlink:href="#linear-gradient"/><linearGradient id="linear-gradient-3" x1="151.26" y1="144.46" x2="162.4" y2="144.46" xlink:href="#linear-gradient"/></defs><title>Asset 5</title><g id="Layer_2" data-name="Layer 2"><g id="Layer_1-2" data-name="Layer 1"><rect class="cls-1" x="55.67" y="55.67" width="183.92" height="183.92" transform="translate(-61.15 147.63) rotate(-45)"/><path class="cls-2" d="M105.71,134.45V115.31l-7.46,14.26h-3l-7.45-14.26v19.14H82.13V105.54h6L96.71,122l8.63-16.45h6v28.91Z"/><path class="cls-2" d="M133.72,105.54h5l11,28.91H143.9l-2.69-7.21H131.12l-2.65,7.21h-5.78Zm6.48,17.76-4-11.37-4.16,11.37Z"/><path class="cls-2" d="M179.77,110.47h-9.24v24H165v-24h-9.24v-4.93h24.06Z"/><path class="cls-2" d="M213.12,110.47h-9.24v24H198.3v-24h-9.24v-4.93h24.06Z"/><path class="cls-2" d="M92.9,160.8h5l11,28.91h-5.78l-2.69-7.2H90.29l-2.65,7.2H81.86Zm6.47,17.76-4-11.37-4.15,11.37Z"/><path class="cls-2" d="M142.33,189.71V170.58l-7.45,14.25h-3l-7.45-14.25v19.13h-5.62V160.8h6l8.55,16.45L142,160.8h6v28.91Z"/><path class="cls-2" d="M180.77,184.79v4.92H160.7V160.8h19.71v4.93H166.32v7h12.17v4.56H166.32v7.54Z"/><path class="cls-2" d="M213.39,184.79v4.92H193.31V160.8H213v4.93H198.93v7h12.18v4.56H198.93v7.54Z"/><path class="cls-3" d="M134.73,152.38c-.77,0-1.48-.56-1.48-1.82,0-3.07,2.87-6.16,5.19-6.16.91,0,1.34.48,1.36.84a.43.43,0,0,1,.46.46,16.28,16.28,0,0,0-.62,2.77c0,.93.23,1.57.75,1.57.89,0,2-2.14,2-2.14.11-.18.22-.31.38-.31a.3.3,0,0,1,.32.31,1.09,1.09,0,0,1-.11.34s-1.28,2.62-2.73,2.62c-1.71,0-1.46-2.18-1.69-2.18S136.53,152.38,134.73,152.38Zm3.19-4.52c.47-.87.88-2.07,1.27-2.23,0-.21-.34-.39-.75-.39-1.53,0-4.16,2.78-4.16,5.42,0,.56.2.93.66.93C135.75,151.59,136.78,149.9,137.92,147.86Z"/><path class="cls-4" d="M143,149.38c1-2,2.32-4.25,3.68-4.25,1,0,1.32.73,1.43,1.91.32,3.25.48,4.14,1.46,4.14,1.14,0,1.93-2.41,2.21-3.14.13-.39.29-.52.5-.52a.36.36,0,0,1,.38.38,2.84,2.84,0,0,1-.13.5c-.16.44-1.3,3.67-3.33,3.67-1.47,0-1.77-1.48-2.06-4.78-.07-.77-.19-1.43-.57-1.43-1,0-2.37,2.61-3.23,4.48a8.79,8.79,0,0,0-.73,1.95.5.5,0,0,1-.55.46c-.34,0-.47-.23-.47-.53a5.46,5.46,0,0,1,.25-1.06,16.76,16.76,0,0,0,.5-4.53,3.12,3.12,0,0,0-.19-1.18,1.06,1.06,0,0,1-.06-.28.47.47,0,0,1,.5-.43.55.55,0,0,1,.47.39,4.71,4.71,0,0,1,.21,1.55,17.47,17.47,0,0,1-.16,1.86C143.1,148.81,143,149.11,143,149.38Z"/><path class="cls-5" d="M156.51,144.88a17.72,17.72,0,0,1-.11-2c0-5.14,1.29-6.37,2.43-6.37.82,0,1.27.61,1.27,1.8,0,2.82-2.45,8.16-2.45,9,0,1.78.77,4,1.48,4,1.09,0,2.27-2.61,2.59-3.39a.35.35,0,0,1,.32-.25.34.34,0,0,1,.36.34,1.37,1.37,0,0,1-.13.48c-.32.75-1.53,3.6-3.28,3.6s-2-2.89-2.18-2.89-1.64,3.23-3.73,3.23a1.88,1.88,0,0,1-1.82-2.07c0-3.28,2.75-5.69,4.43-5.69A1.25,1.25,0,0,1,156.51,144.88Zm.09,1.86a4.27,4.27,0,0,0-.07-.75c-.54,0-.5-.45-1-.45-1.16,0-3.14,2-3.14,4.91,0,.73.32,1.21.86,1.21,1,0,2.28-1.64,3.23-3.85A3.22,3.22,0,0,0,156.6,146.74Zm.82-1.41a30,30,0,0,0,1.8-7.21c0-.54-.07-.88-.39-.88-.66,0-1.41,1.61-1.41,8.07Z"/><rect class="cls-6" x="44.74" y="44.74" width="205.77" height="205.77" transform="translate(-61.15 147.63) rotate(-45)"/></g></g></svg>