<svg xmlns="http://www.w3.org/2000/svg" viewBox="0 0 288 244.93"><defs><style>.cls-1{fill:#cbb6ae;}.cls-2{fill:#f1f2f2;}</style></defs><title>Asset 2</title><g id="Layer_2" data-name="Layer 2"><g id="Layer_1-2" data-name="Layer 1"><path class="cls-1" d="M107.64,1.28,286.36,112.67l-141,130.9-144-131.1L107.64,1.28M107.48,0,0,112.52,145.42,244.93,288,112.52,107.48,0Z"/><path class="cls-1" d="M244.38,27.09l-.89,0,.07,1.33h-.65l0,.89,1.5,0v-.18h0v-.56h0l0-1.5Zm-3.55.17-.54,0h-.35l.07,1.5.89,0-.07-1.5Zm-3.55.17-.78,0h-.11l.07,1.5.89,0-.07-1.49Zm-3.55.16-.34,0h0l-.54,0,.07,1.5.89,0-.07-1.5Zm-3.56.17h0l-.84,0,.07,1.5.88,0-.07-1.5Zm-3.55.16L226,28l-.28,0,.07,1.49.89,0-.07-1.5Zm-3.55.17-.66,0h-.23l.07,1.5.89,0-.07-1.5Zm-3.55.17h-.3l-.59,0,.07,1.5.89,0-.07-1.5Zm-3.55.16h-.19l-.7,0,.07,1.49.89,0-.07-1.5Zm-3.55.17-.66,0h-.23l.07,1.5.89,0-.07-1.5Zm-3.56.17-.62,0H208l.07,1.5.88-.05-.07-1.49Zm-3.55.16h-.23l-.66,0,.07,1.5.89,0-.07-1.5Zm-3.55.17h-.24l-.65,0,.07,1.5.89,0-.07-1.5Zm-3.55.16-.8,0h-.09l.07,1.49.89,0-.07-1.5Zm-3.55.17-.58,0h-.31l.07,1.5.89,0-.07-1.5Zm-3.55.17H191l-.75,0,.07,1.5.89,0-.07-1.5Zm-3.56.16-.32,0h0l-.55,0,.07,1.49.88,0-.07-1.5Zm-3.55.17-.86,0h0l.07,1.5.89,0-.07-1.5Zm-3.55.17-.45,0-.44,0,.07,1.5.89-.05-.07-1.49Zm-3.55.16-.89,0,.07,1.5.89,0-.07-1.5Zm-3.55.17-.46,0-.43,0,.07,1.5.89,0-.07-1.5Zm-3.55.17-.89,0,.07,1.5.89-.05-.07-1.49Zm-3.56.16-.41,0h0l-.46,0,.07,1.5.88,0-.07-1.5Zm-3.55.17h0l-.85,0,.07,1.5.89,0-.07-1.5Zm-3.55.16-.51,0-.38,0,.07,1.49.89,0-.07-1.5Zm-3.55.17-.75,0h-.14l.07,1.5.89,0-.07-1.5Zm-3.55.17h-.38l-.51,0,.07,1.5.89,0-.07-1.5Zm-3.55.16h-.1l-.79,0,.07,1.5.89,0-.07-1.5Zm-3.56.17-.65,0h-.23l.07,1.5.88,0-.07-1.5Zm-3.55.17-.7,0h-.19l.07,1.5.89-.05-.07-1.49Zm-3.55.16h-.26l-.63,0,.07,1.5.89,0-.07-1.5Zm-3.55.17h-.15l-.74,0,.07,1.5.89,0-.07-1.5Zm-3.55.16-.71,0h-.18l.07,1.49.89,0-.07-1.5Zm-3.55.17-.61,0h-.28l.07,1.5.89,0-.07-1.5Zm-3.56.17h-.21l-.67,0,.07,1.5.88,0-.07-1.5Zm-3.55.16-.29,0h0l-.6,0,.07,1.49.89,0-.07-1.5Zm-3.55.17-.76,0h-.13l.07,1.5.89,0-.07-1.5Zm-3.55.17-.54,0h0l-.35,0,.07,1.5.89,0L113,33.25Zm-3.55.16h-.15l-.74,0,.07,1.5.89,0-.07-1.5Zm-3.55.17h-.37l-.52,0,.07,1.5.89,0-.07-1.5Zm-3.56.17-.88,0,.07,1.5.88,0-.07-1.49Zm-3.55.16-.48,0-.41,0,.07,1.5.89,0-.07-1.5Zm-3.55.17-.89,0,.07,1.5.89,0-.07-1.5Zm-3.55.16-.46,0h0l-.42,0,.07,1.49.89,0-.07-1.5Zm-3.55.17-.89,0,.07,1.5.89,0-.07-1.5Zm-3.55.17h-.39l-.5,0,.07,1.5.89,0-.07-1.49ZM81,34.74h0l-.88,0,.07,1.5.88,0L81,34.74Zm-3.55.17-.56,0h-.33l.07,1.5.89,0-.07-1.5Zm-3.55.17-.77,0H73l.07,1.5.89,0-.07-1.49Zm-3.55.16-.34,0-.55,0,.07,1.5.89,0-.07-1.5Zm-3.55.17h-.15l-.74,0L66,37l.89,0-.07-1.5Zm-3.55.16-.62,0-.27,0,.07,1.49.89,0-.07-1.5Zm-3.56.17-.66,0h-.22l.07,1.5.88,0-.07-1.5Zm-3.55.17h-.29l-.6,0,.07,1.5.89,0-.07-1.5Zm-3.55.16h-.21l-.68,0,.07,1.5.89,0-.07-1.5ZM49,36.24l-.74,0h-.15l.07,1.5.89,0L49,36.24Zm-1.21,2.49v0h0l0,.85,1.5.05,0-.89-1.5-.05Zm-.13,3.55v.3h0l0,.58,1.5,0,0-.88-1.5-.06Zm-.13,3.55,0,.53h0v.36l1.5.06,0-.89-1.5-.06Zm-.13,3.56,0,.73h0v.15l1.49,0,0-.89-1.5,0Zm-.13,3.55,0,.89,1.5.05,0-.88-1.5-.06Zm-.13,3.55,0,.62h0v.27l1.5.06,0-.89-1.49-.06ZM47,60.05v.45l0,.44,1.5.05,0-.89L47,60.05Zm-.13,3.55v.23l0,.66,1.5.05,0-.88-1.5-.06Zm-.13,3.55,0,.89,1.5.06,0-.89-1.5-.06Zm-.13,3.56v.2h0l0,.67,1.5.06,0-.89-1.5-.05Zm-.13,3.55,0,.4v.49l1.5,0,0-.89-1.5,0Zm-.13,3.55,0,.65v.24l1.5.06,0-.89-1.5-.06Zm-.13,3.56,0,.84v0l1.5.06,0-.89-1.5,0Zm-.13,3.55,0,.69v.2l1.5,0,0-.89-1.49,0ZM46,88.47,46,89h0v.36l1.5.06,0-.89L46,88.47ZM45.86,92v.32l0,.57,1.5.06,0-.89L45.86,92Zm-.13,3.56v.11h0l0,.77,1.5,0,0-.89-1.5,0Zm-.13,3.55v.07h0l0,.81,1.5,0,0-.88-1.5-.06Zm-.13,3.55V103h0l0,.56,1.49.06,0-.89-1.5-.06Zm-.13,3.56,0,.54h0l0,.33,1.5.05,0-.89-1.5-.05Zm-.13,3.55,0,.76h0v.12l1.5,0,0-.88-1.49-.06Zm-.14,3.55,0,.77h0v.12l1.5.06,0-.89-1.5-.06Zm-.13,3.56,0,.59h0v.29l1.5,0,0-.89-1.5,0Zm-.13,3.55v.39l0,.5,1.5,0,0-.88-1.5-.06ZM44.68,124v.2l0,.69,1.5.06,0-.89-1.5-.06Zm-.13,3.56,0,.88,1.49.06,0-.89-1.5,0Zm-.13,3.55v.23l0,.66,1.5.05,0-.89-1.5,0Zm-.13,3.55,0,.45h0l0,.43,1.5.06,0-.89-1.5-.06Zm-.14,3.56,0,.68v.2l1.5.06,0-.89-1.5-.05ZM44,141.77l0,.87h0v0l1.5.05,0-.89-1.5,0Zm-.13,3.55,0,.68h0v.21l1.5.06,0-.89-1.5-.06Zm-.13,3.56,0,.46h0v.41l1.5.06,0-.89-1.5-.05Zm-.13,3.55v.27l0,.62,1.5.05,0-.89-1.5,0ZM43.5,156v.09h0l0,.79,1.49,0,0-.88L43.5,156Zm-.13,3.55v.14h0l0,.74,1.5.06,0-.89-1.5-.06Zm-.13,3.56,0,.36h0l0,.52,1.5.05,0-.89-1.49,0Zm-.14,3.55,0,.57h0v.31l1.5.05,0-.88-1.5-.06ZM43,170.19l0,.78h0v0h0v.09l1.5.06,0-.89-1.5-.06Zm-.13,3.56,0,.75h0v.14l1.5.05,0-.89-1.5-.05Zm-.13,3.55,0,.54h0v.34l1.5.05,0-.88-1.5-.06Zm-.13,3.55v.35l0,.54,1.49.06,0-.89-1.5-.06Zm-.13,3.56v.16h0l0,.71,1.5.06,0-.89-1.5-.05ZM42.32,188V188h0l0,.82,1.5.05,0-.89-1.49,0Zm-.14,3.55v.28l0,.61,1.5.06,0-.89-1.5-.06Zm-.13,3.56v.48h0l0,.4,1.5.06,0-.89-1.5-.05Zm-.13,3.55,0,.71h0v.18l1.5.05,0-.89-1.5,0Zm-.13,3.55,0,.89,1.5.06,0-.89-1.5-.06Zm-.13,3.56,0,.63h0v.24l1.5.06,0-.89-1.5-.05Zm-.13,3.55,0,.45,0,.44,1.5.05,0-.89-1.5-.05Zm-.13,3.55v.25l0,.64,1.5.05,0-.88-1.5-.06Zm-.14,3.55v0h0l0,.86,1.5.06,0-.89-1.5-.06Zm-.13,3.56v.19h0l0,.7,1.5,0,0-.89-1.5-.05ZM41,223.49v.39l0,.5,1.5.05,0-.88-1.5-.06ZM40.87,227l0,.61h0v.26l1.5.06,0-.89-1.5-.06Zm.25,2.07-.33.08-.06,1.55h0l.73-.17-.34-1.46Zm3.47-.8-.87.2.34,1.46.86-.2-.33-1.46Zm3.46-.81-.87.2.34,1.46.87-.2-.34-1.46Zm3.46-.8-.86.2.34,1.46.86-.2-.34-1.46Zm3.47-.81-.87.21.34,1.46.86-.2L55,225.89Zm3.46-.8-.87.2.34,1.46.82-.19h.05l-.34-1.46Zm3.46-.8-.86.2.34,1.46.86-.2-.34-1.46Zm3.47-.81-.87.2.34,1.47.53-.13.34-.08-.34-1.46Zm3.46-.8-.87.2.34,1.46.87-.2-.34-1.46Zm3.46-.8-.86.2.34,1.46.86-.2-.34-1.46Zm3.47-.81-.87.2.34,1.46.39-.09.48-.11-.34-1.46Zm3.46-.8-.87.2.34,1.46.87-.2-.34-1.46Zm3.46-.81-.86.21.34,1.46.86-.2-.34-1.47Zm3.47-.8-.87.2.34,1.46.87-.2-.34-1.46Zm3.46-.8-.86.2.33,1.46.87-.2-.34-1.46Zm3.46-.81-.86.2.34,1.47.65-.16h0l.17,0-.34-1.46Zm3.47-.8-.87.2.34,1.46.87-.2-.34-1.46Zm3.46-.8-.86.2.33,1.46.87-.2-.34-1.46Zm3.46-.81-.86.2.34,1.46.86-.2-.34-1.46Zm3.47-.8-.87.2.34,1.46.87-.2-.34-1.46Zm3.46-.81-.86.21.34,1.46.86-.2-.34-1.47Zm3.47-.8-.87.2.34,1.46.86-.2-.33-1.46Zm3.46-.8-.87.2.34,1.46.87-.2-.34-1.46Zm3.46-.81-.86.2.34,1.47.86-.21-.34-1.46Zm3.47-.8-.87.2.34,1.46.87-.2-.34-1.46Zm3.46-.8-.87.2.34,1.46.87-.2-.34-1.46Zm3.46-.81-.86.2.34,1.46.36-.08.5-.12-.34-1.46Zm3.47-.8-.87.2.34,1.46.87-.2-.34-1.46Zm3.46-.81-.87.21.34,1.46.87-.2-.34-1.47Zm3.46-.8-.86.2.34,1.46.86-.2-.34-1.46ZM145,205l-.87.2.34,1.46.87-.2L145,205Zm3.46-.81-.87.2.34,1.47.85-.2h0l-.34-1.46Zm3.46-.8-.86.2.34,1.46.86-.2-.34-1.46Zm3.47-.8-.87.2.34,1.46.87-.2-.34-1.46Zm3.46-.81-.86.2.33,1.46h.17l.7-.17-.34-1.46Zm3.46-.8-.86.2.34,1.46.86-.2-.34-1.46Zm3.47-.81-.87.21.34,1.46.87-.2-.34-1.47Zm3.46-.8-.86.2.33,1.46.87-.2-.34-1.46Zm3.47-.8-.87.2.34,1.46.86-.2-.33-1.46Zm3.46-.81-.87.2.34,1.46.87-.2-.34-1.46Zm3.46-.8-.86.2.34,1.46.86-.2-.34-1.46Zm3.47-.8-.87.2.34,1.46.86-.2-.33-1.46Zm3.46-.81-.87.2.34,1.46.35-.08.52-.12-.34-1.46Zm3.46-.8-.86.2.34,1.46.86-.2-.34-1.46Zm3.47-.81-.87.2.34,1.47.87-.2-.34-1.47Zm3.46-.8-.87.2.34,1.46.87-.2-.34-1.46Zm3.46-.8-.86.2.34,1.46.86-.2-.34-1.46Zm3.47-.81-.87.2.34,1.46.87-.2-.34-1.46Zm3.46-.8-.87.2.34,1.46.87-.2-.34-1.46Zm3.46-.8-.86.2.34,1.46.86-.2-.34-1.46Zm3.47-.81-.87.2.34,1.46.27-.06h.07l.53-.13-.34-1.46Zm3.46-.8-.86.2.33,1.46.87-.2-.34-1.46Zm3.46-.81-.86.2.34,1.47.86-.21-.34-1.46Zm3.47-.8-.87.2.34,1.46.87-.2-.34-1.46Zm3.46-.8-.86.2.33,1.46.87-.2-.34-1.46Zm3.46-.81-.86.2.34,1.46.86-.2-.34-1.46Zm3.47-.8-.87.2.34,1.46.63-.15h.07l.17,0-.34-1.46Zm3.46-.81-.86.21L238,185l.86-.2-.34-1.47Zm3.47-.8-.87.2.34,1.46.86-.2-.33-1.46Zm3.46-.8-.87.2.34,1.46.87-.2-.34-1.46Zm2.44-.4-1.5,0,0,.89,1.5,0v-.08h0l0-.8Zm-.08-3.56-1.5,0,0,.89,1.5,0h0l0-.88Zm-.08-3.55-1.5,0,0,.89,1.5,0V175h0l0-.82Zm-.08-3.56-1.5,0,0,.89,1.5,0v-.15h0v-.73Zm-.09-3.55-1.5,0,0,.89,1.49,0v-.24h0l0-.63Zm-.08-3.56-1.5,0,0,.89,1.5,0v-.33l0-.56Zm-.08-3.55-1.5,0,0,.89,1.5,0V160Zm-.08-3.55-1.5,0,0,.89,1.5,0v-.48h0v-.39Zm-.08-3.56-1.5,0,0,.88,1.5,0v-.89Zm-.08-3.55-1.5,0,0,.89,1.5,0,0-.65h0v-.22Zm-.08-3.56-1.5,0,0,.88,1.5,0,0-.73h0v-.16Zm-.08-3.55-1.5,0,0,.89,1.5,0,0-.83h0v-.05Zm-.09-3.56-1.5,0,0,.89,1.5,0,0-.89Zm-.08-3.55-1.5,0,0,.89,1.5,0,0-.81v-.08Zm-.08-3.56-1.5,0,0,.89,1.5,0,0-.72h0v-.16Zm-.08-3.55-1.5,0,0,.89,1.5,0v-.64h0V128Zm-.08-3.56-1.5,0,0,.89,1.5,0v-.54h0v-.34Zm-.08-3.55-1.5,0,0,.89,1.5,0v-.48h0v-.4Zm-.08-3.56-1.5,0,0,.89,1.5,0v-.41h0v-.48Zm-.09-3.55-1.5,0,0,.89,1.5,0v-.32h0l0-.56Zm-.08-3.55-1.5,0,0,.89,1.5,0v-.23h0l0-.64Zm-.08-3.56-1.5,0,0,.88,1.5,0v-.16h0l0-.73Zm-.08-3.55-1.5,0,0,.89,1.5,0v-.09h0l0-.78ZM246,99.53l-1.5,0,0,.88,1.5,0h0l0-.87ZM246,96l-1.5,0,0,.89,1.5,0v-.08h0l0-.81Zm-.08-3.56-1.5,0,0,.89,1.5,0v-.16h0v-.72Zm-.09-3.55-1.49,0,0,.89,1.5,0v-.23h0l0-.65Zm-.08-3.56-1.5,0,0,.89,1.5,0v-.32h0l0-.56Zm-.08-3.55-1.5,0,0,.89,1.5,0v-.4h0v-.47Zm-.08-3.56-1.5,0,0,.89,1.5,0V78.2Zm-.08-3.55-1.5,0,0,.89,1.5,0v-.89Zm-.08-3.56-1.5,0,0,.89,1.5,0,0-.65h0v-.23Zm-.08-3.55-1.5,0,0,.89,1.5,0,0-.74h0v-.14ZM245.23,64l-1.5,0,0,.89,1.5,0,0-.8V64Zm-.09-3.56-1.5,0,0,.88,1.5,0,0-.89Zm-.08-3.55-1.5,0,0,.89,1.5,0,0-.79h0v-.08ZM245,53.32l-1.5,0,0,.88,1.5,0V53.5h0v-.17Zm-.08-3.55-1.5,0,0,.89,1.5,0V50h0v-.23Zm-.08-3.56-1.5,0,0,.89,1.5,0v-.57h0v-.31Zm-.08-3.55-1.5,0,0,.89,1.5,0v-.89Zm-.08-3.56-1.5,0,0,.89,1.5,0V39.1Zm-.09-3.55-1.5,0,0,.89,1.49,0v-.32h0l0-.56ZM244.49,32,243,32l0,.89,1.5,0v-.26h0l0-.62Z"/><path class="cls-2" d="M110.09,122.87c1.43,2.8,2,5.35-.26,2.8-10.56-11.4-3.72-34.47.52-48-3.84,2-11.14,22.09-17.79,30.7-.59,1.23-3.72,2.93-4.43.65-1-3.78.13-15.32,2-29-1.24,3.26-13.88,23.2-17.66,38.58-.32,1.5-.84-.07-.91-2.48.39-7.3,9.58-27.3,15-38.84,1.37-2.67,2.94-3.26,5.28-4.49s2.35-2.16,2.94,0c.78,3.25-4.31,21.83-3.65,34C94,105.21,102.4,83.64,110,72.69c1.11-1.56,4.1-4.23,4.89-2.67,1.43,2.81-1.37,10.36-4.24,21.25S106.05,112.32,110.09,122.87Z"/><path class="cls-2" d="M138.44,105c-3.33,2.67-7.24,6.58-10.89,5.87-2.67-.52-2.54-3.46-2.28-4.5-2.34,3.71-5.93,5.54-8.66,5.54-5.41,0-4.11-10.43,9-16.62,1-.58,2.6.52.85,1.37-7.5,2.8-12.52,14.14-6.78,12.58,1.76-.33,6.45-5.74,7.62-10,.2-1,0-2.28.59-2.47s2.74-1.37,3.58-1.24.26,2.41-.65,5-3.13,7.23-1.3,8c2.15.85,6.38-2.93,9-5.08C139.09,102.48,139.28,103.84,138.44,105Z"/><path class="cls-2" d="M158,113.62c-5.09.52-8.93-1.76-5.48-14.21a87.88,87.88,0,0,1,3.26-9.51c-2.87.32-5.73.72-8.4,1.24l-.4,1c-4.17,10.76-6.12,19.88-.32,21.18,1.95.46.26,2.35-2.09,2.15-4.82-.39-7-3.58-3.52-16a62.42,62.42,0,0,1,2.48-7.36,23.12,23.12,0,0,0-7,3.06c-1.37.91-3.13-1.11-1.89-2,2.15-1.63,5.8-2.81,10-3.65a91.11,91.11,0,0,1,4.7-9.13c.65-1.43,4.88-2,4.1-.78a99.2,99.2,0,0,0-4.89,9.26c2.74-.4,5.54-.72,8.15-.92a68.71,68.71,0,0,1,4.63-8.73c.65-1.43,4.88-2,4.1-.78-1.82,3.13-3.32,6-4.89,9.32,2.94-.13,5.41-.13,7.17-.13,2.22-.07,4,1.24,1.37,1.5-2.87.06-6.13.19-9.45.45-.39.78-.72,1.7-1.11,2.54-5.34,12.84-4.3,19,1.31,19.68C161.31,112,159.94,113.42,158,113.62Z"/><path class="cls-1" d="M181.46,114.62a20.56,20.56,0,0,0-4.76,1.3c-1.95.92-3.52-.52-2.8-1.1,1.63-1.18,4.56-1.83,8.08-2.15.78-2.74,1.56-4.89,1.76-5.41.72-2.41,5.67-3.72,5-1.57-.53,1.7-1.57,4.11-2.68,6.85a53.44,53.44,0,0,1,6.39.39c1.24.19.85,1.56-.46,1.5a56.92,56.92,0,0,0-6.64-.2,64.36,64.36,0,0,0-2.87,8.93c-.26,1.17-1.95,2.21-2.15.78C179.89,121.66,180.55,117.94,181.46,114.62Z"/><path class="cls-2" d="M85.52,157.42c-1.37.65-3.33-.26-.92-1.7,9.58-4.49,20.53-6,31.48-7.82,5.6-8.34,12.9-20.07,15.44-27,.26-1.63,4.3-3.39,4.3-1-1,9.19-3.84,15.64-3.71,25.87,6.84-.65,11.93-.91,15.77-1.17,2-.13,1.37.84-2.41,1.63l-4,.45c-1.63.2-5,.59-9.31,1.24.45,9.64,2.67,18.77,9.12,26.13,2.41,1.83.26,1.83-3-.91-6.58-5.47-9.45-15.64-9.84-24.7-3.65.52-7.69,1.17-11.79,1.89-6.13,9.06-10.82,15.51-10.82,15.51-1.63,2.41-3.26.52-2.15-1.24,3.13-4,6.71-8.66,10.43-13.88-9.45,1.7-16.62,3.07-24.64,6.06C87.47,158.46,86.82,156.77,85.52,157.42Zm33-9.84c3.52-.52,6.84-1,9.91-1.37a102.92,102.92,0,0,1,1.1-16.36C127.16,134,122.14,141.91,118.49,147.58Z"/><path class="cls-2" d="M172.84,147.38c-2.61,5-4,12.06-1.76,13.75,1.17,1-.32,2.15-2.54,1.37-4.69-1.69-.13-13.55-.78-14.14a41.36,41.36,0,0,0-9.32,10.1c-1.3,1.89-6.13,2.41-5.41-.19s3.13-9.32,2.8-9.78c-4.1,3.65-7.56,9.84-9.32,11.73s-6.64,2.35-5.73-.65,3.58-10.82,5.15-13,6.38-3.07,4.95-1.18c-3.06,4.5-5.93,13.1-5.34,12.71s7.75-11.47,11.34-13.29c1.49-.79,3.06-1.57,4.36-1.37s-.19,2.87-1.5,5.86-2.86,7.11-1.89,6.52c3.85-4.89,11.15-11.34,12.38-11.4s1.44-1,2.68-.72S174,145.88,172.84,147.38Z"/><path class="cls-2" d="M194.41,157c-.13-5.21,4.3-10.62,9.19-12.51,4.37-1.69,5.93-1.3,5.93.72,0,3.19-3.26,7.49-11.4,11.6l.13.65c1.1,4.17,7,3.91,15.18-1,1.24-.72,2.8-.45,1.69.39-9.84,7.24-18.63,7-20.2,2.87a8.92,8.92,0,0,1-.39-1.17c-8.34,4-15.9,4.49-18,1.17-2.81-4.43,2.93-13,8.66-15.25,4.37-1.69,5.93-1.3,5.93.72,0,4-4.69,7.3-11.34,9.9C178.77,161.72,186.72,159.9,194.41,157Zm-14.21-3.78c8.15-4.1,7-7.36,5.41-6.84C183.07,147.25,181.25,149.86,180.2,153.18Zm18.38,0c-.19.85-.32,1.44-.39,2,8.15-5.15,8.28-9.58,5.8-8.8S199.43,149.79,198.58,153.18Z"/></g></g></svg>