<svg xmlns="http://www.w3.org/2000/svg" xmlns:xlink="http://www.w3.org/1999/xlink" viewBox="0 0 229.72 229.72"><defs><style>.cls-1{fill:#333a44;opacity:0.75;}.cls-2{fill:none;stroke:#fff;stroke-miterlimit:10;stroke-width:2.33px;}.cls-3{fill:#fff;}.cls-4{fill:url(#linear-gradient);}</style><linearGradient id="linear-gradient" x1="119.31" y1="121.05" x2="137.53" y2="121.05" gradientUnits="userSpaceOnUse"><stop offset="0" stop-color="#ecc9a4"/><stop offset="1" stop-color="#ca945b"/></linearGradient></defs><title>Asset 6</title><g id="Layer_2" data-name="Layer 2"><g id="Layer_1-2" data-name="Layer 1"><rect class="cls-1" x="43.31" y="43.31" width="143.1" height="143.1" transform="translate(-47.58 114.86) rotate(-45)"/><rect class="cls-2" x="34.81" y="34.81" width="160.1" height="160.1" transform="translate(-47.58 114.86) rotate(-45)"/><path class="cls-3" d="M58.45,70.06a1.28,1.28,0,0,1,1.22-1.3c.64,0,5.68,1.06,5.77,13.38,0,3.29-.74,13.43-.74,13.43,5-14.24,13.19-32.1,22.16-32.17,4.32,0,6,2.93,6,6.74s-2.49,13-4.31,19.84c-.88,3.16-1.13,3.55-1.63,5.75,4-8.8,10.31-19.24,16.63-19.28,3.75,0,5.31,2.35,5.34,5.7,0,5.94-3.21,12.29-3.16,18.87,0,3.74,1.52,5.15,1.52,5.15.39.38.59.64.59,1a1.39,1.39,0,0,1-1.35,1.23,2.06,2.06,0,0,1-.9-.44c-.33-.26-2.6-2.31-2.63-6.82,0-6.46,3.25-13.58,3.21-19.19,0-1.94-1.05-3-2.73-3-6,0-12.62,12.6-18.13,26.58-.89,2.2-1,2.59-2.05,2.6a1.37,1.37,0,0,1-1.3-1.54,44,44,0,0,1,1.61-9.18c4-14.42,6.55-23.08,6.52-27.27,0-2.78-1.13-4.13-3.39-4.11-7,0-16.3,21.41-21.1,35.25a97,97,0,0,0-3.28,11.51,1.15,1.15,0,0,1-1.22.91,1.58,1.58,0,0,1-1.55-1.28,2.26,2.26,0,0,1,.12-.77c.56-3,3.11-16.86,3-29.51C62.6,72.61,59.75,71.34,59.1,71S58.45,70.45,58.45,70.06Z"/><path class="cls-3" d="M115.84,110.24c-2.19,0-4.2-1.59-4.23-5.14-.06-8.71,8-17.54,14.59-17.59,2.58,0,3.82,1.33,3.89,2.36a1.22,1.22,0,0,1,1.3,1.28c0,1.23-1.71,4.6-1.69,7.89,0,2.64.68,4.45,2.16,4.44,2.52,0,5.64-6.11,5.64-6.11.31-.52.64-.91,1.09-.91a.85.85,0,0,1,.91.9,3.32,3.32,0,0,1-.32,1s-3.56,7.44-7.69,7.47c-4.84,0-4.17-6.16-4.82-6.16S120.94,110.2,115.84,110.24Zm8.94-12.91c1.34-2.46,2.48-5.89,3.57-6.35,0-.58-1-1.09-2.13-1.08-4.33,0-11.76,8-11.7,15.44,0,1.61.6,2.64,1.89,2.63C118.73,108,121.6,103.16,124.78,97.33Z"/><path class="cls-3" d="M154,109.06c-3.54,0-6.21-3.18-6.25-7.83a52.88,52.88,0,0,1,1.91-12.72c-2.89.86-5.53,2-9.27,2.45a75.7,75.7,0,0,0-.4,7.81c.07,9.87,2.75,14,2.75,14a1.78,1.78,0,0,1,.26.9,1.29,1.29,0,0,1-1.21,1.36,1.55,1.55,0,0,1-1.3-.7s-3.12-3.85-3.21-15.46a77.49,77.49,0,0,1,.4-7.81h-.26c-4.71,0-6.27-1.37-6.27-2.15a1.07,1.07,0,0,1,1.09-1.17c1,0,1.23,1,5.17,1H138c.61-5.23,1.67-10.14,2.54-14.47a1.45,1.45,0,0,1,1.35-1.1,1.22,1.22,0,0,1,1.3,1.41c-.31,1.93-.74,3.94-1,5.81-.5,2.65-1,5.3-1.37,8.14,3.68-.54,6.51-1.79,9.6-2.58.69-3,1.63-6.73,2.06-9.83.06-.58.51-1.29,1.15-1.29a1.48,1.48,0,0,1,1.5,1.27,77.23,77.23,0,0,1-1.68,9.18,18,18,0,0,1,2.84-.21c3,0,4.58.8,4.59,1.9a1.16,1.16,0,0,1-1.15,1.17c-1.1,0-1.3-.7-3.43-.69a18.81,18.81,0,0,0-3.41.35c-.07.07-.07.26-.07.32-1.06,4.85-1.87,8.92-1.84,12.92,0,3.16,1.07,5.67,3.4,5.66,3.09,0,6.66-7.15,7.61-9.54a1.28,1.28,0,0,1,1.09-.92,1,1,0,0,1,1,.9,4.61,4.61,0,0,1-.25,1.1C162.62,101.19,159,109,154,109.06Z"/><path class="cls-4" d="M128.33,111.94a.88.88,0,0,1,1,.87l.05,7.29,7.24,0a.85.85,0,0,1,.93,1,.88.88,0,0,1-.87,1l-7.29.05,0,7.09a.9.9,0,0,1-1,1,1,1,0,0,1-1-1.06l0-7-7.09,0a.9.9,0,0,1-1-1,1,1,0,0,1,1.06-1l7,0-.06-7.24A.86.86,0,0,1,128.33,111.94Z"/><path class="cls-3" d="M97.92,112.91a1.1,1.1,0,0,1,1.17,1,6.38,6.38,0,0,1-.24,1.61,130,130,0,0,0-2.93,24,15.43,15.43,0,0,1,3.68.87,1.13,1.13,0,0,1,.72,1.16,1.28,1.28,0,0,1-1.28,1.3,2.68,2.68,0,0,1-1-.25,9,9,0,0,0-2.2-.5l0,2.39A70.16,70.16,0,0,0,97,157.19a1.34,1.34,0,0,1-1.41,1.36c-1,0-1.3-1.15-1.3-1.15A74.5,74.5,0,0,1,93,143.73v-1.87c-1-.06-2.07-.12-3.42-.11a85.76,85.76,0,0,0-9.68.59c-6.44,11-15.57,23.92-23.38,24-2.9,0-5.17-1.65-5.18-3.06a1.6,1.6,0,0,1,1.54-1.5,2.09,2.09,0,0,1,1.55.76,4,4,0,0,0,3,1.14c5.74,0,13.21-10.87,19.14-20.78-9.54,1.68-13.58,4.93-15,6a2,2,0,0,1-1.48.72,1.26,1.26,0,0,1-1.36-1.28,1.6,1.6,0,0,1,.5-1.23c1.35-1.3,7-5.28,19-7l2-3.43c5.8-10.24,12-20.93,16.55-23.41A2.66,2.66,0,0,1,97.92,112.91ZM93,139.34a127.1,127.1,0,0,1,2.37-21.24c-2.88,3.18-8.43,11.67-13,19.9l-1,1.75a76.53,76.53,0,0,1,8.13-.45C90.89,139.29,92.05,139.28,93,139.34Z"/><path class="cls-3" d="M140,153a11.18,11.18,0,0,1-6.11,2.56,5,5,0,0,1-5.07-5.26,20.92,20.92,0,0,1,1.19-5.75,19.16,19.16,0,0,0,1-4.65c0-1.1-.47-1.48-1.18-1.48-3.22,0-8,10.45-10,16.59-.57,1.81-2.5,1.57-2.52-.37,0-7.74.69-11.87.65-18.33,0-1-.47-1.54-1.24-1.54-2.58,0-4.68,4.88-7.26,13.15-1.45,4.73-2.52,9-2.71,9.44a1.35,1.35,0,0,1-2.65-.11c0-.83.8-6.33.77-9.81-.06-7.94-1.1-9.8-1.11-11a1.45,1.45,0,0,1,1.35-1.3,1.16,1.16,0,0,1,1.1,1,32.07,32.07,0,0,1,1.61,8.83c2.21-6.47,4.69-12.55,9.08-12.58,2.32,0,3.81,1.39,3.83,4,0,3.48-.46,7.81-.5,11.16,2.41-5.37,5.85-11.46,10-11.49a3.41,3.41,0,0,1,3.57,3.72,18.21,18.21,0,0,1-.93,4.72,22.53,22.53,0,0,0-1.18,6.13c0,1.75.79,2.71,2.4,2.7,1.42,0,3-.86,4.76-2.23a12.08,12.08,0,0,1-.67-3.93c-.06-8,5.51-13.85,9.19-13.88a3.42,3.42,0,0,1,3.64,3.59c0,3.36-4.25,10.16-9.19,14.65a5.86,5.86,0,0,0,5.51,2.8,14.49,14.49,0,0,0,8.56-3.42,13,13,0,0,1-.68-4.38c-.06-8,4.81-13.33,8-13.35,2,0,3.37,1.33,3.38,3.59,0,4.13-3.15,10.09-7.83,14.51,1,2,3.05,3,5.57,2.93,6.58-.05,10.77-8.92,11.66-10.86.39-.78.77-1,1.29-1a1.06,1.06,0,0,1,1.1,1,4.2,4.2,0,0,1-.31,1.29c-.7,1.94-5.92,12-14,12a8.76,8.76,0,0,1-7.19-3.76,16.54,16.54,0,0,1-9.72,3.88A8.72,8.72,0,0,1,140,153Zm1-3.88c3.91-4,7.35-9.67,7.33-12.25,0-.77-.33-1.29-.91-1.28-2.39,0-6.61,5.08-6.56,11.53A17,17,0,0,0,141,149.13Zm17-.19c3.65-3.7,6.07-8.62,6.05-11.78,0-1.23-.34-1.68-.85-1.68-2.13,0-5.39,5.08-5.34,11.53A15.73,15.73,0,0,0,158.06,148.94Z"/></g></g></svg>